<svg xmlns="http://www.w3.org/2000/svg" viewBox="0 0 200 200">
  <g fill="#000000" transform="translate(0,70)">
    <g>
      <path d="M130.3,57.2c0,8.2-1.9,14.4-9.3,20.2l-8.1-6.8c4.2-4,5.6-7,5.7-11.9l-6.5,0V40.3h18.2V57.2z"/>
      <rect x="112.3" y="9.8" width="18" height="18.3"/>
    </g>
    <polygon points="0,58.7 0,0.7 43.6,0.7 43.6,14.5 17.5,14.5 17.5,24.7 41.6,24.7 41.6,38.5 17.5,38.5 17.5,58.7"/>
    <path d="M84.3,58.7V36H67.3v22.7H49.4v-58h17.9v20.4h16.9V0.7h18v58H84.3z"/>
    <path d="M140.5,58.7v-58h24.8c11.4,0,16.3,1.2,19.8,3.5c5.1,3.4,7.6,8.9,7.6,16.1c0,6.7-2.6,12.5-7.3,15.9c-4,2.9-9.3,4.3-18.3,4.3h-8.8v18.2H140.5z M165.1,27c3.5,0,6-0.5,7.4-1.6c1.3-1.1,1.8-2.7,1.8-4.6c0-1.8-0.5-3.4-1.8-4.6c-1.3-1.2-3.4-1.6-7.1-1.6h-7.1V27H165.1z"/>
  </g>
</svg>
